<?xml version="1.0" encoding="utf-8"?>
<!-- Uploaded to: SVG Repo, www.svgrepo.com, Generator: SVG Repo Mixer Tools -->
<svg fill="#000000" width="800px" height="800px" viewBox="0 0 32 32" version="1.1" xmlns="http://www.w3.org/2000/svg">
<title>baidu</title>
<path d="M11.156 22.427c-0.597 0.171-1.071 0.596-1.307 1.147l-0.005 0.013c-0.119 0.297-0.187 0.641-0.187 1.001 0 0.207 0.023 0.409 0.066 0.603l-0.003-0.018c0.161 0.759 0.782 1.335 1.551 1.429l0.009 0.001h1.712v-4.174zM17.977 20.994v4.85c0.12 0.516 0.765 0.61 0.765 0.61h2.017v-5.427h2.111v7.225h-4.892c-1.896-0.487-1.987-1.831-1.987-1.831v-5.395zM13.023 18.007l1.927 0.030v10.243h-4.251c-1.144-0.183-2.1-0.864-2.652-1.809l-0.010-0.018c-0.27-0.584-0.427-1.268-0.427-1.988 0-0.333 0.034-0.658 0.098-0.971l-0.005 0.031c0.385-1.436 1.57-2.517 3.037-2.742l0.021-0.003h2.262zM15.815 13.208c-1.754 0.075-3.271 1.020-4.14 2.411l-0.013 0.022c-1.108 1.613-2.393 2.997-3.852 4.174l-0.037 0.029c-0.312 0.386-4.511 2.644-3.579 6.773 0.228 2.191 1.996 3.903 4.192 4.044l0.013 0.001c0.376 0.027 0.815 0.043 1.257 0.043 1.401 0 2.766-0.157 4.078-0.454l-0.123 0.023c0.688-0.153 1.478-0.24 2.289-0.24 1.040 0 2.046 0.144 3 0.412l-0.078-0.019s6.539 2.184 8.329-2.019c0.415-0.734 0.659-1.612 0.659-2.546 0-1.514-0.641-2.878-1.666-3.835l-0.003-0.003c-2.234-1.761-4.18-3.732-5.86-5.917l-0.058-0.078c-0.852-1.624-2.492-2.733-4.397-2.82l-0.011-0zM26.142 10.112c-2.884 0-3.27 2.648-3.27 4.519 0 1.787 0.151 4.28 3.734 4.201s3.19-4.046 3.19-4.984c-0.021-2.026-1.635-3.669-3.648-3.736l-0.006-0zM5.481 7.921q-0.098 0.002-0.195 0.010c-2.647 0.237-3.034 4.049-3.034 4.049-0.359 1.762 0.857 5.53 4.12 4.829 3.27-0.701 2.827-4.599 2.728-5.451-0.313-1.819-1.775-3.219-3.599-3.435l-0.020-0.002zM21.222 1.747c-1.648-0.018-3.539 2.493-3.723 4.165-0.234 2.181 0.312 4.357 2.723 4.667 2.416 0.312 3.968-2.257 4.276-4.204 0.014-0.133 0.023-0.287 0.023-0.444 0-1.916-1.23-3.544-2.943-4.138l-0.031-0.009c-0.098-0.023-0.21-0.037-0.326-0.037h-0zM12.444 1.004c-1.804 0-3.267 2.072-3.267 4.632 0 2.563 1.463 4.636 3.268 4.636 1.807 0 3.267-2.073 3.267-4.636-0.001-2.561-1.461-4.632-3.268-4.632z"></path>
</svg>