<svg role="img" viewBox="0 0 24 24" xmlns="http://www.w3.org/2000/svg"><title>Bevy</title><path fill="#FFFFFF" d="M11.996 0c3.313 0 5.998 2.686 5.998 5.998 0 3.313-2.685 5.998-5.998 5.998C8.683 11.996 6 9.31 6 5.998 6 2.686 8.684 0 11.996 0zm7.147 6.463c.642 1.488 1.488 1.488 2.13 0 1.07-2.477.535-4.423-.536-5.836-1.196 1.432-1.614 3.376-1.594 5.836zm-14.294 0c-.642 1.488-1.488 1.488-2.13 0-1.07-2.477-.535-4.423.536-5.836 1.196 1.432 1.614 3.376 1.594 5.836zm10.718 10.718c.642 1.488 1.488 1.488 2.13 0 1.07-2.477.535-4.423-.536-5.836-1.196 1.432-1.614 3.376-1.594 5.836zm-7.143 0c-.642 1.488-1.488 1.488-2.13 0-1.07-2.477-.535-4.423.536-5.836 1.196 1.432 1.614 3.376 1.594 5.836zM12 12.857c3.313 0 5.998 2.686 5.998 5.998 0 3.312-2.685 5.998-5.998 5.998-3.313 0-5.998-2.686-5.998-5.998s2.685-5.998 5.998-5.998z"/></svg>
